<?xml version="1.0" encoding="UTF-8" standalone="no"?>
<!DOCTYPE svg PUBLIC "-//W3C//DTD SVG 20010904//EN" "http://www.w3.org/TR/2001/REC-SVG-20010904/DTD/svg10.dtd">
<svg version="1.0" xmlns="http://www.w3.org/2000/svg" width="1530.000000pt" height="1589.000000pt" viewBox="0 0 1530.000000 1589.000000" preserveAspectRatio="xMidYMid meet">

<g transform="translate(0.000000,1589.000000) scale(0.100000,-0.100000)" fill="#000000" stroke="none">
<path d="M6425 12783 c-397 -57 -535 -111 -695 -272 -95 -96 -175 -213 -134 -197 10 4 48 15 84 24 54 13 76 25 125 70 117 105 303 212 430 247 81 22 310 31 417 16 103 -15 245 -51 363 -91 115 -40 204 -49 240 -26 34 22 32 52 -9 135 -48 95 -42 93 -456 96 -184 2 -348 1 -365 -2z"/>
<path d="M7666 12465 c-12 -9 -42 -15 -77 -15 -50 0 -60 -3 -78 -26 -54 -69 13 -223 123 -281 29 -15 164 -63 175 -63 3 0 -1 6 -9 13 -53 41 -63 103 -30 187 28 70 25 88 -18 145 -41 55 -57 62 -86 40z"/>
<path d="M6665 12441 c-112 -8 -138 -18 -230 -91 -65 -51 -115 -71 -155 -59 -46 13 -48 11 -45 -33 2 -24 4 -43 5 -43 1 0 4 -16 6 -35 3 -19 10 -57 16 -85 6 -27 11 -62 10 -76 -1 -16 4 -29 13 -33 8 -3 15 -13 15 -21 0 -24 101 -66 173 -72 116 -10 185 -67 193 -157 1 -16 7 -32 14 -36 9 -5 9 -9 1 -14 -6 -4 -11 -12 -11 -17 0 -14 74 -2 114 17 16 8 33 14 38 14 6 0 76 23 156 51 276 96 442 202 442 280 0 49 -38 123 -107 209 -99 123 -169 169 -288 188 -88 15 -246 20 -360 13z m193 -263 c2 -9 -5 -19 -17 -23 -30 -9 -27 -49 5 -74 46 -36 100 -21 130 35 21 39 38 39 42 0 3 -19 -5 -35 -30 -60 -69 -69 -164 -56 -281 39 -38 30 -73 55 -78 55 -5 0 -9 4 -9 9 0 12 137 40 190 38 33 -2 46 -6 48 -19z"/>
<path d="M5529 12247 c-187 -70 -266 -254 -214 -502 26 -127 126 -296 203 -345 33 -21 49 -127 63 -409 22 -433 4 -676 -145 -1941 -101 -852 -111 -1404 -30 -1528 15 -23 16 -23 36 -5 26 23 98 152 98 176 0 9 4 17 8 17 8 0 78 -170 179 -433 29 -76 62 -151 73 -167 42 -59 427 -324 945 -650 424 -267 595 -387 662 -463 36 -41 38 -52 53 -267 10 -143 32 -261 70 -371 16 -47 18 -67 10 -115 -12 -72 -32 -375 -26 -381 9 -9 43 16 86 63 l43 47 -7 -69 c-21 -202 -21 -184 4 -184 13 0 40 18 66 43 l43 44 -6 -57 c-3 -36 -2 -60 5 -64 20 -12 158 123 221 217 46 68 70 126 86 213 30 156 12 514 -40 769 -43 211 -77 292 -183 435 -62 83 -307 380 -417 505 -218 248 -532 638 -571 709 l-27 50 -1 330 -1 331 151 305 c83 168 150 306 149 308 -1 1 -66 -41 -145 -93 -78 -52 -146 -92 -151 -89 -5 3 -9 22 -9 42 0 56 -44 238 -79 324 -121 304 -279 513 -611 811 -45 40 -68 67 -58 67 53 0 429 -135 667 -240 51 -22 95 -39 98 -37 5 6 -51 49 -162 125 -175 119 -520 406 -743 618 l-82 79 -10 269 c-6 148 -15 286 -20 306 -5 19 -26 51 -46 70 -72 69 -194 245 -194 280 0 12 15 14 85 11 99 -4 130 2 140 26 4 10 16 60 26 111 11 52 37 133 59 180 67 150 72 229 19 334 -29 59 -114 144 -173 175 -60 30 -146 39 -197 20z"/>
<path d="M7895 11970 c-164 -14 -217 -87 -141 -191 35 -47 147 -129 178 -129 9 0 21 -8 27 -17 9 -17 10 -17 29 0 10 9 39 24 65 33 59 20 92 54 106 109 18 72 14 110 -16 146 -49 58 -80 64 -248 49z"/>
<path d="M7605 11508 c-111 -38 -128 -41 -225 -42 -79 0 -125 6 -185 22 -124 35 -188 38 -263 13 -63 -21 -182 -89 -182 -103 0 -16 58 -7 143 22 107 36 126 37 247 5 208 -55 288 -53 490 10 104 33 124 36 208 33 79 -2 95 0 103 14 24 44 -26 68 -140 68 -63 -1 -97 -8 -196 -42z"/>
<path d="M7363 11159 c-193 -12 -356 -42 -620 -114 -180 -49 -383 -84 -495 -86 -60 -1 -108 -5 -108 -9 0 -11 130 -132 197 -183 33 -26 166 -115 295 -198 306 -198 446 -301 576 -423 29 -27 54 -47 57 -44 3 2 -7 29 -21 58 -39 82 -91 246 -105 333 -9 62 -9 93 0 147 24 133 80 216 247 365 l76 69 29 -16 28 -16 56 64 57 64 -69 -1 c-37 -1 -127 -6 -200 -10z"/>
<path d="M7440 9909 c0 -4 27 -64 61 -135 165 -350 235 -586 289 -976 7 -49 15 -88 19 -88 3 0 6 155 6 343 l0 344 -57 70 c-31 39 -109 149 -174 244 -110 165 -144 211 -144 198z"/>
<path d="M8101 8388 c-7 -62 -15 -216 -18 -343 -6 -275 0 -328 92 -835 62 -342 126 -713 166 -965 28 -175 26 -216 -9 -308 -42 -106 -74 -248 -75 -333 -2 -65 1 -75 36 -132 l38 -61 -25 -68 c-13 -37 -45 -112 -70 -166 -50 -105 -106 -241 -106 -257 0 -15 46 -12 87 5 20 8 38 14 40 12 2 -2 -19 -52 -47 -111 -27 -59 -50 -112 -50 -117 0 -17 46 -3 140 43 63 30 101 58 148 105 35 36 67 62 70 58 4 -4 7 -142 6 -308 0 -332 -16 -525 -60 -727 -34 -157 -76 -291 -88 -279 -2 2 2 38 10 79 8 41 16 154 19 250 l6 175 -23 -45 c-12 -25 -45 -92 -73 -150 -120 -248 -309 -481 -536 -662 -119 -95 -168 -128 -301 -204 l-107 -60 65 -74 c82 -93 122 -174 130 -260 9 -88 -12 -163 -85 -313 -71 -146 -84 -193 -80 -290 5 -88 55 -203 92 -212 12 -3 438 -4 947 -3 l925 3 3 40 c10 119 -79 229 -237 293 -140 57 -256 73 -576 81 l-260 6 90 66 c236 174 480 517 580 815 55 164 68 239 68 394 1 233 -40 410 -165 720 -61 151 -110 249 -234 472 l-94 170 30 35 c102 115 203 466 240 833 23 223 8 550 -34 770 -54 278 -187 736 -347 1190 -65 184 -285 740 -302 764 -11 15 -15 2 -26 -96z"/>
<path d="M5584 7073 c3 -15 10 -95 16 -178 5 -82 12 -179 15 -215 3 -36 10 -202 15 -369 19 -559 -20 -1091 -136 -1846 -101 -659 -278 -1429 -369 -1605 -84 -162 -417 -346 -766 -424 -151 -33 -265 -48 -694 -91 -866 -86 -1224 -175 -1400 -349 -70 -70 -98 -132 -68 -154 13 -9 495 -12 2357 -10 l2341 3 3 29 c2 18 -10 55 -32 101 -90 183 -270 281 -556 303 l-105 8 78 49 c144 91 305 206 380 270 90 77 209 217 226 264 6 19 32 67 56 107 261 418 301 850 129 1372 -79 240 -235 543 -396 769 -34 49 -117 156 -183 238 -145 180 -253 322 -325 429 -55 83 -136 244 -126 253 3 3 103 -89 223 -204 307 -296 429 -403 397 -350 -5 6 -139 208 -299 447 -286 428 -370 561 -363 579 1 5 46 -29 98 -76 155 -141 520 -442 520 -429 0 10 -224 323 -283 396 -155 191 -349 378 -617 596 -126 103 -141 112 -136 87z"/>
</g>
</svg>